<?xml version="1.0" standalone="no"?>
<!DOCTYPE svg PUBLIC "-//W3C//DTD SVG 20010904//EN"
 "http://www.w3.org/TR/2001/REC-SVG-20010904/DTD/svg10.dtd">
<svg version="1.0" xmlns="http://www.w3.org/2000/svg"
 width="500.000000pt" height="500.000000pt" viewBox="0 0 500.000000 500.000000"
 preserveAspectRatio="xMidYMid meet">
<metadata>
Created by potrace 1.14, written by Peter Selinger 2001-2017
</metadata>
<g transform="translate(0.000000,500.000000) scale(0.100000,-0.100000)"
fill="#000000" stroke="none">
<path d="M1365 4753 c-46 -9 -79 -30 -146 -93 -55 -53 -66 -85 -52 -154 11
-54 6 -73 -30 -110 -41 -44 -57 -108 -43 -177 l8 -37 -43 -7 c-81 -14 -170
-56 -218 -104 -70 -70 -105 -183 -89 -288 8 -58 65 -185 98 -220 9 -11 23 -36
31 -56 7 -20 17 -37 22 -37 4 0 6 -3 4 -7 -3 -5 1 -14 9 -21 11 -10 14 -10 14
0 1 7 8 2 16 -12 8 -14 13 -17 10 -8 -3 12 1 16 15 15 10 -1 20 -4 20 -7 5
-21 4 -107 -1 -115 -3 -5 -16 -44 -29 -85 -13 -41 -38 -122 -57 -180 -79 -246
-167 -585 -188 -729 -13 -93 -14 -295 -1 -381 17 -116 57 -254 97 -334 26 -50
15 -70 -59 -119 -71 -47 -118 -60 -218 -60 -63 0 -88 4 -120 21 -63 35 -56 7
16 -62 95 -90 146 -120 248 -146 90 -23 235 -4 282 36 24 21 57 17 84 -10 23
-23 23 -25 10 -82 -18 -79 -28 -177 -30 -304 -1 -58 -6 -116 -12 -130 -18 -43
-26 -159 -13 -191 7 -16 16 -29 21 -29 12 0 35 -48 43 -90 16 -84 21 -154 20
-292 l-1 -148 1383 0 1384 0 1 38 c0 20 2 57 5 82 2 25 6 131 8 235 3 105 5
202 5 217 1 25 4 26 47 26 25 0 48 2 50 5 8 8 10 132 3 193 -9 76 -12 89 -27
106 -6 8 -21 55 -33 104 -11 49 -25 94 -29 99 -4 6 -11 35 -14 65 -3 30 -9 80
-12 110 -14 130 -50 225 -109 286 l-38 39 34 25 c67 50 145 137 173 196 52
108 55 120 71 229 22 156 10 354 -35 585 -10 52 -21 109 -24 125 -25 155 -59
341 -80 435 -59 272 -122 380 -339 584 -141 132 -223 198 -288 231 -25 13 -60
36 -78 50 -28 24 -31 32 -31 85 0 125 -30 212 -108 317 -61 81 -103 104 -190
106 -37 0 -82 -2 -99 -5 -31 -6 -74 9 -165 58 -15 8 -31 15 -35 14 -5 0 -28 7
-53 15 -70 22 -98 27 -205 30 -110 4 -188 -9 -299 -50 -38 -14 -76 -25 -85
-25 -10 0 -34 18 -55 39 -74 76 -139 79 -204 10 -20 -21 -42 -39 -48 -39 -7 0
-31 23 -55 51 -24 27 -60 57 -79 66 -45 21 -42 20 -65 16z m1759 -2874 c31
-12 56 -25 55 -28 0 -3 -21 -21 -46 -40 l-47 -34 -18 24 c-10 13 -32 41 -48
61 -17 20 -30 40 -30 44 0 11 73 -4 134 -27z"/>
</g>
</svg>
